# xmcd
#
# Track frame offsets:
#	150
#	14450
#	26850
#	45025
#	57585
#	78583
#	93510
#	101605
#	118115
#	130875
#	146795
#	160118
#
# Disc length: 2259
#
# Revision: 1
# Processed by: cddbd v1.5.1PL0 Copyright (c) Steve Scherf et al.
# Submitted via: CDex 1.50
# Normalized: r0:TDELIM( - )
#
DISCID=a008d10c
DTITLE=Various Artist - Triste Memories Of Antonio Carlos Jobim
DYEAR=1900
DGENRE=Jazz
TTITLE0=Vic Damone - How Insensitive
TTITLE1=Vic Damone - Once I Loved
TTITLE2=Rod Mckuen - Triste
TTITLE3=Maysa - Agua De Beber
TTITLE4=Groupo Chuvano na Roseiro - Janelas Abertas
TTITLE5=Maria Bethania - Anos Dourados
TTITLE6=Eumir Deodato - Bolero From The Adventurers
TTITLE7=Sylvia Syms - Someone To Light Up My Life
TTITLE8=Wanda - Vivo Sonhando
TTITLE9=Eumir Deodato - Love Theme From The Adventurers
TTITLE10=Nancy Ames and Laurindo Almeida - Meditation
TTITLE11=Agostinho Dos Santos - Estrada Do Sil
EXTD=
EXTT0=
EXTT1=
EXTT2=
EXTT3=
EXTT4=
EXTT5=
EXTT6=
EXTT7=
EXTT8=
EXTT9=
EXTT10=
EXTT11=
PLAYORDER=
